<svg width="512" height="512" viewBox="0 0 512 512" fill="none" xmlns="http://www.w3.org/2000/svg">
  <rect width="512" height="512" rx="128" fill="url(#gradient)"/>
  <defs>
    <linearGradient id="gradient" x1="0%" y1="0%" x2="100%" y2="100%">
      <stop offset="0%" style="stop-color:#6366F1;stop-opacity:1" />
      <stop offset="100%" style="stop-color:#8B5CF6;stop-opacity:1" />
    </linearGradient>
  </defs>
  
  <!-- Brain icon -->
  <g transform="translate(128, 128) scale(2)">
    <path d="M12 5a3 3 0 0 0-3 3 3 3 0 0 0-3 3 3 3 0 0 0 3 3 3 3 0 0 0 3 3 3 3 0 0 0 3-3 3 3 0 0 0 3-3 3 3 0 0 0-3-3 3 3 0 0 0-3-3z" 
          fill="white" opacity="0.9"/>
    <path d="M12 5a3 3 0 0 0-3 3 3 3 0 0 0-3 3 3 3 0 0 0 3 3 3 3 0 0 0 3 3 3 3 0 0 0 3-3 3 3 0 0 0 3-3 3 3 0 0 0-3-3 3 3 0 0 0-3-3z" 
          fill="none" stroke="white" stroke-width="2" stroke-linecap="round" stroke-linejoin="round"/>
    <path d="M9.5 8.5c.5-.5 1.5-.5 2 0" fill="none" stroke="white" stroke-width="1.5" stroke-linecap="round"/>
    <path d="M14.5 8.5c.5-.5 1.5-.5 2 0" fill="none" stroke="white" stroke-width="1.5" stroke-linecap="round"/>
    <circle cx="10" cy="12" r="1" fill="white"/>
    <circle cx="14" cy="12" r="1" fill="white"/>
  </g>
</svg>